<svg width="25" height="16" viewBox="0 0 25 16" fill="none" xmlns="http://www.w3.org/2000/svg">
<path d="M22.0115 2.422H15.0105V0.338379H22.0115V2.422ZM23.7377 12.8401C23.2957 14.1913 21.7084 15.9655 18.636 15.9655C15.5616 15.9655 13.0712 14.1643 13.0712 10.0533C13.0712 5.97979 15.3966 3.88575 18.538 3.88575C21.6204 3.88575 23.5027 5.74225 23.9137 8.4968C23.9918 9.02396 24.0228 9.73448 24.0088 10.7263H15.9806C16.1107 14.0715 19.4641 14.1768 20.5693 12.8401H23.7377ZM16.0507 8.67287H21.0163C20.9113 7.06119 19.8802 6.36109 18.539 6.36109C17.0728 6.36109 16.2617 7.1612 16.0507 8.67287ZM6.47532 15.953H0.00842285V0.360257H6.96239C12.4392 0.444644 12.5432 6.03188 9.68277 7.55501C13.1442 8.86769 13.2603 15.953 6.47532 15.953V15.953ZM3.00884 6.58925H6.59334C9.10169 6.58925 9.49974 3.46381 6.28129 3.46381H3.00884V6.58925ZM6.40031 9.71468H3.00884V12.8568H6.3503C9.40573 12.8568 9.2187 9.71468 6.40031 9.71468V9.71468Z" fill="white"/>
</svg>
