<svg width="33" height="28" viewBox="0 0 33 28" fill="none" xmlns="http://www.w3.org/2000/svg">
<path d="M29.9399 0.770949C29.9399 0.770949 32.935 -0.397026 32.6844 2.43926C32.6019 3.60724 31.8533 7.69553 31.2705 12.1169L29.2738 25.2152C29.2738 25.2152 29.1072 27.134 27.6093 27.4678C26.1121 27.8009 23.8656 26.2999 23.4493 25.9661C23.1163 25.7155 17.2093 21.961 15.1293 20.1262C14.5465 19.6251 13.8804 18.6244 15.2126 17.4564L23.9481 9.11329C24.9465 8.11261 25.9449 5.77667 21.7849 8.61295L10.1359 16.5382C10.1359 16.5382 8.80453 17.3732 6.309 16.6223L0.900081 14.9532C0.900081 14.9532 -1.09666 13.7019 2.31476 12.4507C10.6355 8.52969 20.8697 4.52543 29.9383 0.770949H29.9399Z" fill="white"/>
</svg>
