<svg width="26" height="15" viewBox="0 0 26 15" fill="none" xmlns="http://www.w3.org/2000/svg">
<path fill-rule="evenodd" clip-rule="evenodd" d="M12.584 14.6888H14.0642C14.0642 14.6888 14.5082 14.6148 14.7303 14.3928C14.9523 14.1708 14.9523 13.7267 14.9523 13.7267C14.9523 13.7267 14.9523 11.8024 15.8404 11.5064C16.7286 11.2104 17.9127 13.4307 19.0969 14.2448C19.985 14.9109 20.6511 14.7628 20.6511 14.7628L23.9076 14.6888C23.9076 14.6888 25.6098 14.6148 24.7957 13.2086C24.7217 13.1346 24.3516 12.2465 22.3533 10.3962C20.281 8.47197 20.5771 8.84202 23.0194 5.51156C24.4996 3.51328 25.0917 2.32912 24.9437 1.73704C24.7957 1.21896 23.6855 1.36698 23.6855 1.36698H19.985C19.985 1.36698 19.689 1.29297 19.5409 1.44099C19.3189 1.58902 19.2449 1.81105 19.2449 1.81105C19.2449 1.81105 18.6528 3.36526 17.9127 4.69745C16.2845 7.43583 15.6184 7.58385 15.3964 7.43583C14.8043 7.06578 14.9523 5.8076 14.9523 4.99349C14.9523 2.32912 15.3964 1.21896 14.1382 0.922922C13.7681 0.848912 13.4721 0.774902 12.436 0.774902C11.1038 0.774902 9.99362 0.774902 9.40154 1.07094C8.95748 1.29297 8.66144 1.73704 8.88347 1.73704C9.1055 1.73704 9.69758 1.88506 9.99362 2.25511C10.2897 2.9212 10.2897 4.03135 10.2897 4.03135C10.2897 4.03135 10.5117 7.2138 9.77159 7.58385C9.25352 7.87989 8.58743 7.28781 7.10722 4.77146C6.36712 3.51328 5.77504 2.03308 5.77504 2.03308C5.77504 2.03308 5.70103 1.73704 5.47899 1.58902C5.25696 1.441 4.88691 1.36698 4.88691 1.36698H1.40843C1.40843 1.36698 0.890357 1.36698 0.668326 1.58902C0.520305 1.81105 0.668326 2.1811 0.668326 2.1811C0.668326 2.1811 3.40671 8.54598 6.51514 11.8024C9.40154 14.9109 12.584 14.6888 12.584 14.6888V14.6888Z" fill="white"/>
</svg>
